<?xml version="1.0" encoding="UTF-8" standalone="no"?>
<svg
   xmlns:dc="http://purl.org/dc/elements/1.1/"
   xmlns:cc="http://creativecommons.org/ns#"
   xmlns:rdf="http://www.w3.org/1999/02/22-rdf-syntax-ns#"
   xmlns:svg="http://www.w3.org/2000/svg"
   xmlns="http://www.w3.org/2000/svg"
   xmlns:xlink="http://www.w3.org/1999/xlink"
   id="svg881"
   version="1.1"
   class="logo"
   viewBox="0 0 50 50">
  <metadata
     id="metadata887">
    <rdf:RDF>
      <cc:Work
         rdf:about="">
        <dc:format>image/svg+xml</dc:format>
        <dc:type
           rdf:resource="http://purl.org/dc/dcmitype/StillImage" />
        <dc:title></dc:title>
      </cc:Work>
    </rdf:RDF>
  </metadata>
  <defs
     id="defs885" />
  <g
     id="g879">
    <defs
       id="defs835">
      <rect
         id="rect833"
         class="SVGID_1_"
         height="47.977"
         width="50"
         y="1" />
    </defs>
    <clipPath
       id="clipPath839"
       class="SVGID_2_">
      <use
         xlink:href=".SVGID_1_"
         overflow="visible"
         id="use837" />
    </clipPath>
    <g
       id="g877"
       clip-path="url(.SVGID_2_)">
      <defs
         id="defs843">
        <rect
           id="rect841"
           class="SVGID_3_"
           height="47.977"
           width="50"
           y="1" />
      </defs>
      <clipPath
         id="clipPath847"
         class="SVGID_4_">
        <use
           xlink:href=".SVGID_3_"
           overflow="visible"
           id="use845" />
      </clipPath>
      <path
         id="path849"
         d="M5.346,42.702l0.397,0.203h0.443h37.606h0.407                      l0.382-0.181c1.517-0.718,2.737-1.7,3.595-3.032c0.851-1.321,1.312-2.931,1.312-4.903c0-2.247-0.574-4.397-1.625-6.38                      c-1.063-2.006-2.613-3.83-4.545-5.398l-1.694-1.375l-1.081,1.897c-0.099,0.173-0.199,0.345-0.3,0.516                      c-0.041-0.906-0.164-1.801-0.39-2.658l-0.221-0.834l-0.772-0.369c-0.835-0.398-1.812-0.812-2.831-1.189                      c-0.924-0.341-1.868-0.645-2.756-0.872l-1.876-0.478l-0.391,1.905c-0.132,0.644-0.278,1.284-0.441,1.919                      c-0.436-1.233-1.023-2.337-1.742-3.445l-0.509-0.786l-0.94-0.055c-0.9-0.052-1.885-0.068-2.889-0.046                      c-0.987,0.021-1.96,0.078-2.852,0.171l-1.904,0.198l0.259,1.888c0.068,0.492,0.127,0.983,0.177,1.474                      c-0.65-0.844-1.427-1.633-2.379-2.33l-0.744-0.545l-0.885,0.27c-0.971,0.297-2.032,0.698-3.054,1.14                      c-1.093,0.472-2.137,0.986-2.981,1.465l-1.531,0.87l0.792,1.571c0.13,0.259,0.257,0.518,0.38,0.78                      c-0.357-0.154-0.716-0.293-1.081-0.434c-0.101-0.039-0.188-0.073-0.633-0.253l-1.077-0.438l-0.864,0.785                      c-1.669,1.515-3.001,3.243-3.914,5.124c-0.9,1.854-1.389,3.843-1.389,5.912c0,1.938,0.412,3.527,1.184,4.837                      C2.786,40.978,3.921,41.974,5.346,42.702 M5.527,30.485c0.55-1.135,1.316-2.211,2.264-3.205c1.527,0.101,3.408,0.774,5.001,2.964                      l2.407-0.97c-0.29-2.075-0.899-4.057-1.734-5.974c0.922-0.443,1.875-0.845,2.837-1.189c2.3,1.443,3.636,4.557,4.469,7.05                      l2.036-0.18c0.964-3.291,1.076-4.628,1.073-8.123c0.777-0.032,1.554-0.038,2.331-0.016c1.967,1.935,2.817,5.437,2.599,8.386                      l1.779,0.559c1.611-2.012,2.955-4.719,3.587-7.517c0.193,0.067,0.386,0.136,0.578,0.207c0.577,0.213,1.148,0.445,1.69,0.683                      c1.128,1.765,0.745,6.026,0.112,8.157l1.478,0.902c1.956-1.263,3.014-2.623,4.517-4.891c0.826,0.875,1.513,1.816,2.037,2.805                      c0.77,1.453,1.191,3.022,1.191,4.657c0,1.231-0.252,2.181-0.718,2.903c-0.396,0.614-0.973,1.107-1.703,1.504H6.661                      c-0.638-0.383-1.14-0.854-1.484-1.439c-0.431-0.733-0.662-1.704-0.662-2.969C4.515,33.283,4.871,31.836,5.527,30.485"
         clip-rule="evenodd"
         fill-rule="evenodd"
         clip-path="url(.SVGID_4_)" />
      <path
         id="path851"
         d="M43.626,35.756c-0.452,0-0.818,0.367-0.818,0.819                      c0,0.452,0.366,0.819,0.818,0.819s0.818-0.367,0.818-0.819C44.445,36.123,44.079,35.756,43.626,35.756"
         clip-rule="evenodd"
         fill-rule="evenodd"
         clip-path="url(.SVGID_4_)" />
      <path
         id="path853"
         d="M42.174,35.387c0.613,0,1.109-0.497,1.109-1.11                      c0-0.612-0.496-1.109-1.109-1.109c-0.613,0-1.109,0.497-1.109,1.109C41.065,34.89,41.561,35.387,42.174,35.387"
         clip-rule="evenodd"
         fill-rule="evenodd"
         clip-path="url(.SVGID_4_)" />
      <path
         id="path855"
         d="M43.97,32.93c0.365,0,0.66-0.296,0.66-0.661                      c0-0.364-0.295-0.66-0.66-0.66c-0.365,0-0.66,0.296-0.66,0.66C43.31,32.634,43.605,32.93,43.97,32.93"
         clip-rule="evenodd"
         fill-rule="evenodd"
         clip-path="url(.SVGID_4_)" />
      <path
         id="path857"
         d="M39.071,38.209c0.707,0,1.281-0.574,1.281-1.281                      s-0.574-1.281-1.281-1.281c-0.707,0-1.281,0.574-1.281,1.281S38.364,38.209,39.071,38.209"
         clip-rule="evenodd"
         fill-rule="evenodd"
         clip-path="url(.SVGID_4_)" />
      <path
         id="path859"
         d="M17.358,31.398c0,0.46,0.373,0.832,0.832,0.832                      c0.46,0,0.832-0.372,0.832-0.832c0-0.46-0.372-0.832-0.832-0.832C17.73,30.566,17.358,30.939,17.358,31.398"
         clip-rule="evenodd"
         fill-rule="evenodd"
         clip-path="url(.SVGID_4_)" />
      <path
         id="path861"
         d="M22.72,32.125c0.423,0,0.766-0.343,0.766-0.766                      c0-0.423-0.343-0.766-0.766-0.766c-0.423,0-0.766,0.343-0.766,0.766C21.954,31.782,22.296,32.125,22.72,32.125"
         clip-rule="evenodd"
         fill-rule="evenodd"
         clip-path="url(.SVGID_4_)" />
      <path
         id="path863"
         d="M25.388,30.196c0.613,0,1.11-0.497,1.11-1.109                      c0-0.613-0.497-1.109-1.11-1.109c-0.613,0-1.11,0.496-1.11,1.109C24.278,29.699,24.775,30.196,25.388,30.196"
         clip-rule="evenodd"
         fill-rule="evenodd"
         clip-path="url(.SVGID_4_)" />
      <path
         id="path865"
         d="M17.133,29.087c0.488,0,0.885-0.396,0.885-0.884                      c0-0.489-0.397-0.885-0.885-0.885s-0.885,0.396-0.885,0.885C16.248,28.691,16.645,29.087,17.133,29.087"
         clip-rule="evenodd"
         fill-rule="evenodd"
         clip-path="url(.SVGID_4_)" />
      <path
         id="path867"
         d="M9.935,32.997c0.642,0,1.162-0.521,1.162-1.162                      c0-0.642-0.52-1.163-1.162-1.163s-1.162,0.52-1.162,1.163C8.773,32.476,9.293,32.997,9.935,32.997"
         clip-rule="evenodd"
         fill-rule="evenodd"
         clip-path="url(.SVGID_4_)" />
      <rect
         id="rect869"
         height="4.388"
         width="50"
         clip-rule="evenodd"
         fill-rule="evenodd"
         clip-path="url(.SVGID_4_)"
         y="44.589" />
      <path
         id="path871"
         d="M18.736,15.293                      c-0.951-6.467,5.732-6.985-1.168-10.621C20.284,9.116,12.811,9.389,18.736,15.293"
         clip-rule="evenodd"
         fill-rule="evenodd"
         clip-path="url(.SVGID_4_)" />
      <path
         id="path873"
         d="M25.734,15.597C24.427,6.709,33.611,5.997,24.129,1                      C27.86,7.107,17.59,7.482,25.734,15.597"
         clip-rule="evenodd"
         fill-rule="evenodd"
         clip-path="url(.SVGID_4_)" />
      <path
         id="path875"
         d="M31.064,15.293                      c-0.674-4.588,4.066-4.955-0.829-7.534C32.162,10.912,26.861,11.106,31.064,15.293"
         clip-rule="evenodd"
         fill-rule="evenodd"
         clip-path="url(.SVGID_4_)" />
    </g>
  </g>
</svg>
